<svg width="118" height="32" xmlns="http://www.w3.org/2000/svg"><defs><linearGradient gradientUnits="userSpaceOnUse" x1="15.979" y1="0" x2="15.979" y2="32" id="a"><stop offset="0%" stop-color="#CCE6FF"/><stop offset="49.925%" stop-color="#2F98FF"/><stop offset="100%" stop-color="#004B96"/></linearGradient><linearGradient gradientUnits="userSpaceOnUse" x1="13.728" y1="22.351" x2="13.728" y2=".278" id="b"><stop offset="0%" stop-color="#3D9FFF"/><stop offset="70.862%" stop-color="#1E90FF"/><stop offset="100%" stop-color="#0067CC"/></linearGradient><linearGradient gradientUnits="userSpaceOnUse" x1="21.651" y1="15.657" x2="2.135" y2="2.601" id="c"><stop offset="0%" stop-color="#004C99"/><stop offset="69.941%" stop-color="#00478F"/><stop offset="100%" stop-color="#002952"/></linearGradient><linearGradient gradientUnits="userSpaceOnUse" x1="10.609" y1="4.354" x2="0" y2="22.655" id="d"><stop offset="0%" stop-color="#3D9FFF"/><stop offset="100%" stop-color="#0067CC"/><stop offset="100%" stop-color="#0077EB"/></linearGradient><linearGradient gradientUnits="userSpaceOnUse" x1="14.151" y1=".115" x2="27.839" y2="14.216" id="e"><stop offset="0%" stop-color="#CCE6FF"/><stop offset="74.268%" stop-color="#B3D9FF"/><stop offset="100%" stop-color="#66B4FF"/></linearGradient></defs><path d="M117.778 11.347l-3.241 4.537 3.241 4.5c.369.516.258.885-.258.885h-.81c-.516 0-1.216-.406-1.547-.885l-1.916-2.693-1.915 2.693c-.369.516-1.068.885-1.547.885h-.811c-.515 0-.626-.406-.258-.885l3.242-4.5-3.242-4.537c-.368-.517-.257-.886.258-.886h.811c.515 0 1.215.406 1.547.886l1.952 2.692 1.953-2.692c.368-.517 1.068-.886 1.547-.886h.81c.442 0 .553.406.184.886zm-19.486 9.959c-.958 0-1.769-.775-1.769-1.734v-8.225c0-.48.406-.886.885-.886.957 0 1.768.775 1.768 1.734v8.226a.898.898 0 01-.884.885zm-16.209 0c-3.5 0-4.678-1.18-4.678-4.427v-4.684a1.73 1.73 0 011.731-1.734c.48 0 .885.37.885.849v5.533c0 1.954.442 2.655 2.025 2.655 1.548 0 2.026-.7 2.026-2.655V11.31c0-.48.406-.849.885-.849a1.73 1.73 0 011.731 1.734v4.684c.037 3.21-1.29 4.427-4.605 4.427zm-19.818-2.213v-6.898a1.73 1.73 0 011.731-1.734c.48 0 .884.406.884.886v7.266c0 .48.369.848.848.848l4.089-.073.11 1.844c-1.584.148-3.315.184-4.973.184-1.915 0-2.689-.995-2.689-2.323zm-12.672-6.75c-.479 0-.847.368-.884.848v1.77h4.384v1.734h-4.384v2.766c0 .96-.81 1.734-1.768 1.734a.834.834 0 01-.847-.848v-7.672c0-1.365.994-2.214 2.541-2.214 1.732 0 3.721 0 5.231.185l-.147 1.734-4.126-.037z" fill="#002447" fill-rule="evenodd"/><g fill-rule="evenodd"><path d="M15.98 0l.344.004.343.01.293.016.28.019.151.013.151.014.312.033.31.04.302.044.306.05.34.064.275.058.274.062.316.078.243.065.294.083c.198.059.395.121.59.187l.29.102.256.095.28.11.113.045.313.133.36.162.262.126.283.141.214.112.338.185.198.114.291.174.22.138.23.148.235.158.094.065c.13.09.258.182.385.275l.306.233.29.232.24.198.145.125.2.176.237.218.163.154.087.085.179.177.176.18.187.198.162.177.17.191.174.203.081.097a15.942 15.942 0 01.727.943l.18.258.143.211.142.218.137.22.134.222.122.208.168.302.182.343.177.356a15.938 15.938 0 011.034 2.777l.065.25.086.36.078.36.043.22.03.17.03.169.04.256.037.257.028.23.026.23.028.294.022.295c.024.358.036.72.036 1.084l-.004.36-.011.356c-.01.23-.025.457-.045.683l-.033.339-.018.162-.02.162-.05.361-.06.359-.049.269-.067.328-.033.151-.077.329-.045.177-.091.336-.099.334-.1.314-.112.33-.106.287-.107.277-.117.286-.12.28c-.106.24-.218.476-.336.71l-.18.348c-.187.35-.386.69-.598 1.024l-.215.33-.118.175-.148.211-.137.19c-.103.14-.207.277-.314.413l-.237.294-.06.073-.149.176-.15.174a16.115 16.115 0 01-1.976 1.885l-.3.235-.306.229-.211.15-.297.205-.306.2-.165.104-.14.087-.296.174-.33.186-.116.063-.209.11-.338.17-.227.108-.229.105c-.107.048-.216.095-.325.141l-.269.11-.384.15-.114.04a10.44 10.44 0 01-.312.11l-.264.087-.265.082-.224.065-.465.125-.241.059-.269.06-.247.052-.25.048-.253.044-.367.057-.336.044-.256.03-.262.024-.207.017-.432.027-.311.012a16.16 16.16 0 01-.474.007l-.344-.004-.313-.01-.31-.015-.272-.018-.303-.027-.334-.035-.193-.024-.35-.05-.348-.056-.383-.072-.364-.077-.274-.064-.267-.068c-.14-.037-.28-.075-.419-.116l-.432-.132-.292-.098-.416-.15-.359-.14-.247-.101-.216-.094c-.182-.08-.362-.164-.54-.25l-.266-.133a16.072 16.072 0 01-.48-.255l-.236-.134a15.92 15.92 0 01-.916-.57l-.296-.202-.208-.15-.206-.151-.225-.173c-.136-.105-.27-.214-.402-.324l-.188-.158-.15-.131a16.102 16.102 0 01-1.339-1.326l-.255-.291-.248-.298-.163-.203-.226-.294-.133-.18-.147-.205-.134-.193-.154-.229-.061-.094-.127-.198-.123-.2-.148-.247-.118-.207-.112-.201-.133-.25-.17-.336-.125-.258-.13-.283-.15-.35-.097-.236-.104-.268-.124-.34-.078-.224-.082-.253-.032-.102-.08-.264-.075-.265-.088-.34-.06-.249a15.883 15.883 0 01-.401-2.995A16.292 16.292 0 010 16l.004-.357.012-.356c.01-.22.023-.44.042-.658l.03-.325c.025-.231.054-.46.088-.688l.055-.34.05-.281c.043-.226.09-.45.143-.672l.082-.332.037-.142.039-.141c.058-.21.12-.418.187-.624l.102-.309c.069-.198.141-.395.217-.59l.103-.256.055-.134.109-.252a15.94 15.94 0 01.429-.896l.176-.331.163-.291.198-.334.168-.27c.111-.175.225-.347.342-.516l.135-.193.207-.283.17-.224.134-.17.135-.168.185-.221.224-.26.205-.226.167-.179.17-.176.178-.18.245-.236.18-.169.16-.145.29-.255.247-.206.22-.177.222-.173.157-.118.28-.203c.133-.095.269-.188.405-.28l.196-.127.209-.132.3-.183.225-.13.286-.16.336-.178.108-.055.22-.108.322-.152.239-.107.296-.126.237-.096.134-.052.226-.085.226-.08.316-.107.265-.084c.2-.062.4-.119.603-.173l.305-.077.293-.068.123-.027.233-.048.235-.045.384-.066.319-.047.244-.032.241-.027.273-.027.411-.032.292-.015c.161-.008.322-.013.485-.015l.25-.002zm-1.506 25.97l.315.132-.144-.065.166.058a3.94 3.94 0 002.78-.14 26.162 26.162 0 009.274-7.091l.26-.318.102-.136a4.142 4.142 0 00-.103-4.962 26.17 26.17 0 00-9.514-7.4l-.106-.044-.094-.037-.154-.055a3.942 3.942 0 00-2.626.052l-.18.073a26.174 26.174 0 00-9.548 7.422l-.087.116-.045.063a4.142 4.142 0 00.135 4.9 26.17 26.17 0 009.57 7.431z" fill="url(#a)"/><path d="M0 16c0-2.266.47-4.423 1.32-6.377l.138-.31-.103.23-.025.057.122-.21c3.883-6.544 10.902-5.385 15.624-3.364l.332.143.014.006a4 4 0 00-2.79-.009l-.178.072a26.06 26.06 0 00-9.528 7.272l-.087.114-.048.065-.139.17c-3.398 4.216-3.184 10.568.823 14.194l.167.147-.062-.051A15.973 15.973 0 010 16z" fill="url(#b)"/><path d="M4.652 13.858l.142-.172a4 4 0 00.135 4.802 26.055 26.055 0 009.549 7.28l.17.067c4.767 2.126 12.154 3.36 16.062-3.635l-.129.309C28.091 28.102 22.49 32 15.98 32a15.902 15.902 0 01-10.211-3.693l-.126-.107c-4.168-3.598-4.435-10.067-.99-14.342z" fill="url(#c)"/><path d="M14.795 25.9l-.317-.131a4 4 0 003.11-.014 26.06 26.06 0 009.254-6.949l.17-.206c3.481-4.054 3.581-10.72-.233-14.388l-.139-.13A15.97 15.97 0 0131.959 16c0 2.306-.487 4.498-1.364 6.479l.116-.279c-3.868 6.924-11.145 5.785-15.915 3.7z" fill="url(#d)"/><path d="M15.98 0c3.535 0 6.802 1.15 9.448 3.096l.326.246.308.246.24.198c.107.09.213.183.318.277 3.922 3.584 3.922 10.244.534 14.369l-.054.063.103-.134A4 4 0 0027.1 13.5a26.056 26.056 0 00-9.493-7.25l-.106-.044-.124-.048-.445-.192C12.212 3.982 5.296 2.912 1.452 9.39l-.122.21.024-.057C3.835 3.923 9.45 0 15.98 0z" fill="url(#e)"/></g></svg>