<svg width="57" height="57" xmlns="http://www.w3.org/2000/svg"><defs><linearGradient gradientUnits="userSpaceOnUse" x1="16" y1="0" x2="16" y2="31.749" id="b"><stop offset="0%" stop-color="#2C96FF"/><stop offset="100%" stop-color="#00FF5E"/></linearGradient><linearGradient gradientUnits="userSpaceOnUse" x1="9.4" y1="0" x2="9.4" y2="24.053" id="c"><stop offset="0%" stop-color="#2C96FF"/><stop offset="100%" stop-color="#00FF5E"/></linearGradient><linearGradient gradientUnits="userSpaceOnUse" x1="5.9" y1="0" x2="5.9" y2="13.469" id="d"><stop offset="0%" stop-color="#2C96FF"/><stop offset="100%" stop-color="#00FF5E"/></linearGradient><filter filterUnits="userSpaceOnUse" color-interpolation-filters="sRGB" id="a"><feFlood flood-opacity="0" result="BackgroundImageFix"/><feColorMatrix in="SourceAlpha" values="0 0 0 0 0 0 0 0 0 0 0 0 0 0 0 0 0 0 127 0"/><feOffset dy="1"/><feGaussianBlur stdDeviation="1.5"/><feColorMatrix values="0 0 0 0 0 0 0 0 0 0 0 0 0 0 0 0 0 0 0.101960786 0"/><feBlend in2="BackgroundImageFix" result="effect0_dropShadow"/><feBlend in="SourceGraphic" in2="effect0_dropShadow" result="shape"/></filter></defs><g filter="url(#a)" transform="translate(4.5 3.5)"><g fill-rule="evenodd"><path d="M24 0c3.248.01 6.518-.056 9.759.235 2.029.183 4.07.52 5.981 1.246.975.37 1.911.846 2.765 1.447.596.42 1.15.9 1.646 1.433 2.48 2.658 3.298 6.366 3.614 9.88.041.464.076.928.103 1.393.031.546.056 1.093.073 1.64.022.7.038 1.399.044 2.099.014 1.542.01 3.085.015 4.627-.005 1.542-.001 3.084-.015 4.627-.006.7-.022 1.4-.044 2.099a61.023 61.023 0 01-.073 1.64c-.027.464-.062.929-.103 1.393-.316 3.514-1.134 7.222-3.614 9.88a10.581 10.581 0 01-1.646 1.432 12.51 12.51 0 01-2.765 1.448c-1.911.726-3.952 1.063-5.98 1.246-3.242.29-6.512.225-9.76.235-1.542-.005-3.084-.001-4.627-.015-.7-.006-1.4-.022-2.099-.044a61.44 61.44 0 01-1.64-.073c-.464-.027-.93-.062-1.393-.103-3.514-.316-7.222-1.134-9.88-3.614a10.583 10.583 0 01-1.433-1.646 12.51 12.51 0 01-1.447-2.765C.755 37.83.418 35.788.235 33.76-.055 30.517.01 27.247 0 24c.005-1.542.001-3.084.015-4.627.006-.7.022-1.4.044-2.099.017-.547.042-1.093.073-1.64.027-.464.062-.93.103-1.393.316-3.514 1.134-7.222 3.614-9.88a10.583 10.583 0 011.646-1.433A12.51 12.51 0 018.26 1.481C10.17.755 12.212.418 14.24.235 17.483-.055 20.753.01 24 0z" fill="#FFF"/><path d="M8.025 3.5L16.053 0l7.974 3.5q.186.082.367.173.181.092.357.192.176.101.346.211.17.11.335.23.164.118.322.246.158.127.308.263.151.136.294.28.143.143.279.294.135.15.262.309.128.158.246.322.119.165.228.335.11.17.21.347.1.176.191.358.091.18.172.367.081.186.152.376.072.19.132.383.061.193.112.39.05.196.09.395.04.199.07.4.028.2.047.402.018.202.026.405.008.202.005.405t-.017.405q-.014.203-.038.404-.025.201-.06.4-.036.2-.082.398-.045.198-.102.392-.056.195-.123.387-.066.191-.143.379-.077.188-.163.371-.087.183-.183.362-.096.178-.202.351L16.981 31.614q-.033.055-.073.104-.04.05-.085.094-.046.045-.097.083-.051.038-.107.07-.055.03-.114.054-.06.024-.121.04-.062.017-.125.025-.063.009-.127.009-.063 0-.127-.008-.063-.008-.125-.023-.061-.016-.12-.04-.06-.023-.115-.054-.056-.031-.108-.069-.051-.038-.097-.081-.046-.044-.086-.094-.04-.05-.074-.103L4.617 14.439q-.107-.172-.205-.35-.098-.179-.186-.362t-.166-.37q-.078-.187-.146-.379-.068-.191-.125-.386-.058-.195-.105-.392-.047-.198-.083-.397-.037-.2-.062-.402-.026-.201-.04-.403-.016-.203-.02-.406t.003-.406q.007-.203.025-.405.018-.202.046-.403.029-.201.068-.4.04-.2.09-.397.05-.196.11-.39t.131-.385q.07-.19.152-.376.08-.186.171-.368.09-.182.19-.358.101-.177.21-.348.11-.17.229-.336.119-.164.246-.323.127-.158.263-.31.135-.15.278-.294.144-.144.295-.28.15-.135.309-.263.158-.128.322-.246.165-.12.336-.23.17-.11.347-.21.176-.1.358-.191.181-.091.367-.173z" fill="url(#b)" fill-opacity=".4" style="mix-blend-mode:multiply" transform="translate(8 8)"/><path d="M11.32 12.4l4.72-2.4 4.681 2.4q.117.06.23.125.114.066.224.136.11.071.217.147t.21.157q.104.08.203.166.099.086.194.176t.185.185q.09.095.177.194.086.099.167.202.08.103.157.21.076.106.147.216.07.11.136.224t.126.23q.06.117.114.236.055.12.104.24.048.122.091.246t.08.25q.037.126.067.253.031.127.056.256t.043.259q.019.13.03.26.013.13.02.261.005.131.005.262t-.006.262q-.007.13-.02.261-.012.13-.031.26-.02.13-.044.259-.025.128-.056.256-.032.127-.069.253-.037.125-.08.249-.043.124-.093.245-.049.122-.103.24l-6.2 13.474-.033.063q-.017.031-.036.06l-.04.06-.045.054q-.023.027-.048.052l-.052.048q-.027.023-.056.045-.028.021-.058.04-.03.02-.06.036l-.064.032q-.032.015-.065.027-.034.013-.067.023l-.07.018-.069.013q-.035.005-.07.007-.036.003-.071.003-.036 0-.07-.002-.036-.002-.071-.007-.036-.005-.07-.013-.035-.007-.069-.017-.034-.01-.067-.022-.034-.012-.066-.026l-.064-.032q-.03-.016-.06-.035l-.06-.04q-.028-.021-.055-.044-.027-.023-.052-.048-.026-.025-.049-.051-.024-.027-.045-.055-.022-.028-.041-.058-.02-.03-.037-.06l-.032-.064-6.336-13.466q-.056-.12-.106-.24-.05-.122-.095-.246-.044-.124-.082-.25-.038-.125-.07-.253-.033-.127-.059-.256-.026-.128-.045-.258-.02-.13-.034-.261-.013-.13-.02-.262-.008-.131-.008-.263-.001-.13.004-.262.006-.131.017-.262.012-.131.03-.261t.043-.26q.024-.129.054-.257.03-.127.067-.254.037-.126.08-.25.042-.124.09-.247.05-.122.104-.241.054-.12.114-.237.06-.117.126-.23.065-.114.136-.225.071-.11.148-.217.076-.107.157-.21.082-.104.168-.203.086-.1.177-.194.09-.095.186-.185.095-.09.195-.177.1-.085.203-.166.104-.081.21-.157.108-.076.219-.146.11-.07.225-.136.114-.065.231-.125z" fill="url(#c)" fill-opacity=".7" style="mix-blend-mode:multiply" transform="translate(8 8)"/><path d="M13.06 21.4l2.963-1.4 2.94 1.4q.142.068.277.15.135.082.26.177.127.095.243.202.116.107.22.225.105.118.197.246.092.128.17.265.08.136.144.28.065.144.115.293.05.15.085.304t.054.31q.02.157.023.314.003.158-.01.315-.012.158-.04.313t-.072.307q-.043.151-.102.298-.058.146-.131.286l-3.459 6.633q-.015.03-.033.06l-.037.056q-.02.028-.041.054l-.045.051q-.023.025-.048.048t-.051.044q-.026.022-.054.041-.028.02-.057.038l-.059.033q-.03.016-.061.03-.031.013-.063.024-.032.012-.065.02-.032.01-.066.017l-.066.012q-.034.005-.068.007l-.067.002-.068-.002-.068-.006-.066-.011q-.034-.007-.066-.016-.033-.009-.065-.02-.032-.011-.063-.024-.032-.014-.062-.03l-.06-.032q-.028-.017-.056-.037l-.054-.04q-.027-.021-.052-.044-.025-.023-.048-.048-.024-.024-.045-.05l-.042-.054-.038-.056-.034-.06-3.53-6.634q-.075-.14-.134-.286-.06-.146-.105-.298-.045-.151-.074-.307-.03-.155-.042-.313-.014-.157-.011-.315.002-.158.021-.315.019-.157.053-.311.034-.155.084-.305t.114-.294q.065-.144.144-.281.079-.137.171-.266.092-.128.197-.246.105-.119.221-.226.116-.107.243-.202.126-.095.261-.176.136-.082.279-.15z" fill="url(#d)" style="mix-blend-mode:multiply" transform="translate(8 8)"/></g></g></svg>