<svg width="57" height="57" xmlns="http://www.w3.org/2000/svg"><defs><linearGradient gradientUnits="userSpaceOnUse" x1="15" y1="30" x2="15" y2="0" id="b"><stop offset="0%" stop-color="#7590F0"/><stop offset="100%" stop-color="#BE3DFF"/></linearGradient><linearGradient gradientUnits="userSpaceOnUse" x1="11" y1="22" x2="11" y2="0" id="c"><stop offset="0%" stop-color="#7590F0"/><stop offset="100%" stop-color="#BE3DFF"/></linearGradient><linearGradient gradientUnits="userSpaceOnUse" x1="7" y1="14" x2="7" y2="0" id="d"><stop offset="0%" stop-color="#7590F0"/><stop offset="100%" stop-color="#BE3DFF"/></linearGradient><filter filterUnits="userSpaceOnUse" color-interpolation-filters="sRGB" id="a"><feFlood flood-opacity="0" result="BackgroundImageFix"/><feColorMatrix in="SourceAlpha" values="0 0 0 0 0 0 0 0 0 0 0 0 0 0 0 0 0 0 127 0"/><feOffset dy="1"/><feGaussianBlur stdDeviation="1.5"/><feColorMatrix values="0 0 0 0 0 0 0 0 0 0 0 0 0 0 0 0 0 0 0.101960786 0"/><feBlend in2="BackgroundImageFix" result="effect0_dropShadow"/><feBlend in="SourceGraphic" in2="effect0_dropShadow" result="shape"/></filter></defs><g filter="url(#a)" transform="translate(4.5 3.5)"><g fill-rule="evenodd"><path d="M24 0c3.248.01 6.518-.056 9.759.235 2.029.183 4.07.52 5.981 1.246.975.37 1.911.846 2.765 1.447.596.42 1.15.9 1.646 1.433 2.48 2.658 3.298 6.366 3.614 9.88.041.464.076.928.103 1.393.031.546.056 1.093.073 1.64.022.7.038 1.399.044 2.099.014 1.542.01 3.085.015 4.627-.005 1.542-.001 3.084-.015 4.627-.006.7-.022 1.4-.044 2.099a61.023 61.023 0 01-.073 1.64c-.027.464-.062.929-.103 1.393-.316 3.514-1.134 7.222-3.614 9.88a10.581 10.581 0 01-1.646 1.432 12.51 12.51 0 01-2.765 1.448c-1.911.726-3.952 1.063-5.98 1.246-3.242.29-6.512.225-9.76.235-1.542-.005-3.084-.001-4.627-.015-.7-.006-1.4-.022-2.099-.044a61.44 61.44 0 01-1.64-.073c-.464-.027-.93-.062-1.393-.103-3.514-.316-7.222-1.134-9.88-3.614a10.583 10.583 0 01-1.433-1.646 12.51 12.51 0 01-1.447-2.765C.755 37.83.418 35.788.235 33.76-.055 30.517.01 27.247 0 24c.005-1.542.001-3.084.015-4.627.006-.7.022-1.4.044-2.099.017-.547.042-1.093.073-1.64.027-.464.062-.93.103-1.393.316-3.514 1.134-7.222 3.614-9.88a10.583 10.583 0 011.646-1.433A12.51 12.51 0 018.26 1.481C10.17.755 12.212.418 14.24.235 17.483-.055 20.753.01 24 0z" fill="#FFF"/><path d="M15 30c8.284 0 15-6.716 15-15 0-8.284-6.716-15-15-15C6.716 0 0 6.716 0 15c0 8.284 6.716 15 15 15z" fill="url(#b)" fill-opacity=".3" style="mix-blend-mode:multiply" transform="translate(9 9)"/><path d="M15 26c6.075 0 11-4.925 11-11S21.075 4 15 4 4 8.925 4 15s4.925 11 11 11z" fill="url(#c)" fill-opacity=".6" style="mix-blend-mode:multiply" transform="translate(9 9)"/><path d="M15 22a7 7 0 100-14 7 7 0 000 14z" fill="url(#d)" style="mix-blend-mode:multiply" transform="translate(9 9)"/></g></g></svg>