<svg width="57" height="57" xmlns="http://www.w3.org/2000/svg"><defs><linearGradient gradientUnits="userSpaceOnUse" x1="16" y1="32" x2="16" y2="0" id="b"><stop offset="0%" stop-color="#7590F0"/><stop offset="100%" stop-color="#BE3DFF"/></linearGradient><linearGradient gradientUnits="userSpaceOnUse" x1="11" y1="22" x2="11" y2="0" id="c"><stop offset="0%" stop-color="#7590F0"/><stop offset="100%" stop-color="#BE3DFF"/></linearGradient><linearGradient gradientUnits="userSpaceOnUse" x1="5" y1="10" x2="5" y2="0" id="d"><stop offset="0%" stop-color="#7590F0"/><stop offset="100%" stop-color="#BE3DFF"/></linearGradient><filter filterUnits="userSpaceOnUse" color-interpolation-filters="sRGB" id="a"><feFlood flood-opacity="0" result="BackgroundImageFix"/><feColorMatrix in="SourceAlpha" values="0 0 0 0 0 0 0 0 0 0 0 0 0 0 0 0 0 0 127 0"/><feOffset dy="1"/><feGaussianBlur stdDeviation="1.5"/><feColorMatrix values="0 0 0 0 0 0 0 0 0 0 0 0 0 0 0 0 0 0 0.101960786 0"/><feBlend in2="BackgroundImageFix" result="effect0_dropShadow"/><feBlend in="SourceGraphic" in2="effect0_dropShadow" result="shape"/></filter></defs><g filter="url(#a)" transform="translate(4.5 3.5)"><g fill-rule="evenodd"><path d="M24 0c3.248.01 6.518-.056 9.759.235 2.029.183 4.07.52 5.981 1.246.975.37 1.911.846 2.765 1.447.596.42 1.15.9 1.646 1.433 2.48 2.658 3.298 6.366 3.614 9.88.041.464.076.928.103 1.393.031.546.056 1.093.073 1.64.022.7.038 1.399.044 2.099.014 1.542.01 3.085.015 4.627-.005 1.542-.001 3.084-.015 4.627-.006.7-.022 1.4-.044 2.099a61.023 61.023 0 01-.073 1.64c-.027.464-.062.929-.103 1.393-.316 3.514-1.134 7.222-3.614 9.88a10.581 10.581 0 01-1.646 1.432 12.51 12.51 0 01-2.765 1.448c-1.911.726-3.952 1.063-5.98 1.246-3.242.29-6.512.225-9.76.235-1.542-.005-3.084-.001-4.627-.015-.7-.006-1.4-.022-2.099-.044a61.44 61.44 0 01-1.64-.073c-.464-.027-.93-.062-1.393-.103-3.514-.316-7.222-1.134-9.88-3.614a10.583 10.583 0 01-1.433-1.646 12.51 12.51 0 01-1.447-2.765C.755 37.83.418 35.788.235 33.76-.055 30.517.01 27.247 0 24c.005-1.542.001-3.084.015-4.627.006-.7.022-1.4.044-2.099.017-.547.042-1.093.073-1.64.027-.464.062-.93.103-1.393.316-3.514 1.134-7.222 3.614-9.88a10.583 10.583 0 011.646-1.433A12.51 12.51 0 018.26 1.481C10.17.755 12.212.418 14.24.235 17.483-.055 20.753.01 24 0z" fill="#FFF"/><path d="M16 28.704l-4.944 2.513-2.523-4.94-5.477-.872.862-5.48L0 16l3.918-3.926-.862-5.479 5.477-.873L11.056.783 16 3.296 20.944.783l2.523 4.94 5.477.872-.862 5.48L32 16l-3.918 3.926.862 5.479-5.477.873-2.523 4.939L16 28.704z" fill="url(#b)" fill-opacity=".3" style="mix-blend-mode:multiply" transform="translate(8 8)"/><path d="M16 24.734l-5.5.792-2.064-5.159L5 16l3.436-4.367 2.064-5.16 5.5.793 5.5-.792 2.064 5.159L27 16l-3.436 4.367-2.064 5.16-5.5-.793z" fill="url(#c)" fill-opacity=".6" style="mix-blend-mode:multiply" transform="translate(8 8)"/><path d="M16 19.97l-4.33-1.47.892-4.485L16 11l3.438 3.015.892 4.485L16 19.97z" fill="url(#d)" style="mix-blend-mode:multiply" transform="translate(8 8)"/></g></g></svg>