<svg width="57" height="57" xmlns="http://www.w3.org/2000/svg"><defs><linearGradient gradientUnits="userSpaceOnUse" x1="11.481" y1="-.527" x2="17.535" y2="28.489" id="b"><stop offset="0%" stop-color="#FFF133"/><stop offset="100%" stop-color="#FF8000"/></linearGradient><linearGradient gradientUnits="userSpaceOnUse" x1="10" y1="0" x2="10" y2="20" id="c"><stop offset="0%" stop-color="#FFCF33"/><stop offset="100%" stop-color="#F30"/></linearGradient><linearGradient gradientUnits="userSpaceOnUse" x1="5" y1="0" x2="5" y2="10" id="d"><stop offset="0%" stop-color="#E19A2F"/><stop offset="100%" stop-color="#DF4018"/></linearGradient><filter filterUnits="userSpaceOnUse" color-interpolation-filters="sRGB" id="a"><feFlood flood-opacity="0" result="BackgroundImageFix"/><feColorMatrix in="SourceAlpha" values="0 0 0 0 0 0 0 0 0 0 0 0 0 0 0 0 0 0 127 0"/><feOffset dy="1"/><feGaussianBlur stdDeviation="1.5"/><feColorMatrix values="0 0 0 0 0 0 0 0 0 0 0 0 0 0 0 0 0 0 0.101960786 0"/><feBlend in2="BackgroundImageFix" result="effect0_dropShadow"/><feBlend in="SourceGraphic" in2="effect0_dropShadow" result="shape"/></filter></defs><g filter="url(#a)" transform="translate(4.5 3.5)"><g fill-rule="evenodd"><path d="M24 0c3.248.01 6.518-.056 9.759.235 2.029.183 4.07.52 5.981 1.246.975.37 1.911.846 2.765 1.447.596.42 1.15.9 1.646 1.433 2.48 2.658 3.298 6.366 3.614 9.88.041.464.076.928.103 1.393.031.546.056 1.093.073 1.64.022.7.038 1.399.044 2.099.014 1.542.01 3.085.015 4.627-.005 1.542-.001 3.084-.015 4.627-.006.7-.022 1.4-.044 2.099a61.023 61.023 0 01-.073 1.64c-.027.464-.062.929-.103 1.393-.316 3.514-1.134 7.222-3.614 9.88a10.581 10.581 0 01-1.646 1.432 12.51 12.51 0 01-2.765 1.448c-1.911.726-3.952 1.063-5.98 1.246-3.242.29-6.512.225-9.76.235-1.542-.005-3.084-.001-4.627-.015-.7-.006-1.4-.022-2.099-.044a61.44 61.44 0 01-1.64-.073c-.464-.027-.93-.062-1.393-.103-3.514-.316-7.222-1.134-9.88-3.614a10.583 10.583 0 01-1.433-1.646 12.51 12.51 0 01-1.447-2.765C.755 37.83.418 35.788.235 33.76-.055 30.517.01 27.247 0 24c.005-1.542.001-3.084.015-4.627.006-.7.022-1.4.044-2.099.017-.547.042-1.093.073-1.64.027-.464.062-.93.103-1.393.316-3.514 1.134-7.222 3.614-9.88a10.583 10.583 0 011.646-1.433A12.51 12.51 0 018.26 1.481C10.17.755 12.212.418 14.24.235 17.483-.055 20.753.01 24 0z" fill="#FFF"/><path d="M14 28c7.732 0 14-6.268 14-14S21.732 0 14 0 0 6.268 0 14s6.268 14 14 14z" fill="url(#b)" fill-opacity=".8" style="mix-blend-mode:multiply" transform="translate(10 11)"/><path d="M14 28c5.523 0 10-4.477 10-10S19.523 8 14 8 4 12.477 4 18s4.477 10 10 10z" fill="url(#c)" fill-opacity=".7" style="mix-blend-mode:multiply" transform="translate(10 11)"/><path d="M14 28a5 5 0 100-10 5 5 0 000 10z" fill="url(#d)" style="mix-blend-mode:multiply" transform="translate(10 11)"/></g></g></svg>