<svg width="57" height="57" xmlns="http://www.w3.org/2000/svg"><defs><linearGradient gradientUnits="userSpaceOnUse" x1="32" y1="16.563" x2="-12.371" y2="16" id="b"><stop offset="0%" stop-color="#FFDA22"/><stop offset="100%" stop-color="#FF1D00"/></linearGradient><linearGradient gradientUnits="userSpaceOnUse" x1="22" y1="11.387" x2="-8.505" y2="11" id="c"><stop offset="0%" stop-color="#FFDA22"/><stop offset="100%" stop-color="#FF1D00"/></linearGradient><linearGradient gradientUnits="userSpaceOnUse" x1="12" y1="6" x2="0" y2="6" id="d"><stop offset="0%" stop-color="#FFF134"/><stop offset="100%" stop-color="#FF5227"/></linearGradient><linearGradient gradientUnits="userSpaceOnUse" x1="12" y1="6" x2="0" y2="6" id="e"><stop offset="0%" stop-color="#FFD034"/><stop offset="100%" stop-color="#FF2E27"/></linearGradient><filter filterUnits="userSpaceOnUse" color-interpolation-filters="sRGB" id="a"><feFlood flood-opacity="0" result="BackgroundImageFix"/><feColorMatrix in="SourceAlpha" values="0 0 0 0 0 0 0 0 0 0 0 0 0 0 0 0 0 0 127 0"/><feOffset dy="1"/><feGaussianBlur stdDeviation="1.5"/><feColorMatrix values="0 0 0 0 0 0 0 0 0 0 0 0 0 0 0 0 0 0 0.101960786 0"/><feBlend in2="BackgroundImageFix" result="effect0_dropShadow"/><feBlend in="SourceGraphic" in2="effect0_dropShadow" result="shape"/></filter></defs><g filter="url(#a)" transform="translate(4.5 3.5)"><g fill-rule="evenodd"><path d="M24 0c3.248.01 6.518-.056 9.759.235 2.029.183 4.07.52 5.981 1.246.975.37 1.911.846 2.765 1.447.596.42 1.15.9 1.646 1.433 2.48 2.658 3.298 6.366 3.614 9.88.041.464.076.928.103 1.393.031.546.056 1.093.073 1.64.022.7.038 1.399.044 2.099.014 1.542.01 3.085.015 4.627-.005 1.542-.001 3.084-.015 4.627-.006.7-.022 1.4-.044 2.099a61.023 61.023 0 01-.073 1.64c-.027.464-.062.929-.103 1.393-.316 3.514-1.134 7.222-3.614 9.88a10.581 10.581 0 01-1.646 1.432 12.51 12.51 0 01-2.765 1.448c-1.911.726-3.952 1.063-5.98 1.246-3.242.29-6.512.225-9.76.235-1.542-.005-3.084-.001-4.627-.015-.7-.006-1.4-.022-2.099-.044a61.44 61.44 0 01-1.64-.073c-.464-.027-.93-.062-1.393-.103-3.514-.316-7.222-1.134-9.88-3.614a10.583 10.583 0 01-1.433-1.646 12.51 12.51 0 01-1.447-2.765C.755 37.83.418 35.788.235 33.76-.055 30.517.01 27.247 0 24c.005-1.542.001-3.084.015-4.627.006-.7.022-1.4.044-2.099.017-.547.042-1.093.073-1.64.027-.464.062-.93.103-1.393.316-3.514 1.134-7.222 3.614-9.88a10.583 10.583 0 011.646-1.433A12.51 12.51 0 018.26 1.481C10.17.755 12.212.418 14.24.235 17.483-.055 20.753.01 24 0z" fill="#FFF"/><path d="M40 24l-8 13.856H16L8 24l8-13.856h16L40 24z" fill="url(#b)" fill-opacity=".5" style="mix-blend-mode:multiply"/><path d="M35 24l-5.5 9.526h-11L13 24l5.5-9.526h11L35 24z" fill="url(#c)" fill-opacity=".7" style="mix-blend-mode:multiply"/><path d="M30 24l-3 5.196h-6L18 24l3-5.196h6L30 24z" fill="url(#d)" style="mix-blend-mode:multiply"/><path d="M30 24l-3 5.196h-6L18 24l3-5.196h6L30 24z" fill="url(#e)" style="mix-blend-mode:multiply"/></g></g></svg>