<svg height="25" width="25" xmlns="http://www.w3.org/2000/svg"><path d="M12.5 6a6.5 6.5 0 110 13 6.5 6.5 0 010-13zm1.988 7h-3.976c.083 1.659.574 3.317 1.474 4.975a5.569 5.569 0 001.027.001c.9-1.66 1.392-3.317 1.475-4.975zm3.49 0h-2.49c-.083 1.667-.579 3.334-1.488 5l.13-.246a5.505 5.505 0 003.848-4.753zm-8.466 0h-2.49a5.505 5.505 0 003.847 4.754L11 18c-.909-1.666-1.405-3.333-1.488-5zm1.357-5.754l-.067.021A5.505 5.505 0 007.022 12h2.49c.079-1.584.531-3.169 1.357-4.754zm3.262 0l.062.12c.787 1.545 1.218 3.09 1.295 4.634h2.49a5.505 5.505 0 00-3.847-4.754zM12.5 7a5.44 5.44 0 00-.513.024L12 7c-.91 1.667-1.405 3.334-1.488 5h3.976c-.083-1.666-.579-3.333-1.488-5l.014.024A5.569 5.569 0 0012.5 7z" fill="#fff" fill-rule="evenodd"/></svg>